<svg width="30" height="30" viewBox="0 0 30 30" fill="none" xmlns="http://www.w3.org/2000/svg">
<path d="M15 28.1287C22.1797 28.1287 28 22.3084 28 15.1287C28 7.94896 22.1797 2.12866 15 2.12866C7.8203 2.12866 2 7.94896 2 15.1287C2 22.3084 7.8203 28.1287 15 28.1287Z" fill="black"/>
<path d="M15 20.3287L20.2 15.1287L15 9.92866" fill="black"/>
<path d="M15 20.3287L20.2 15.1287M20.2 15.1287L15 9.92866M20.2 15.1287H9.8M28 15.1287C28 22.3084 22.1797 28.1287 15 28.1287C7.8203 28.1287 2 22.3084 2 15.1287C2 7.94896 7.8203 2.12866 15 2.12866C22.1797 2.12866 28 7.94896 28 15.1287Z" stroke="#EDEDED" stroke-width="2.5" stroke-linecap="round" stroke-linejoin="round"/>
</svg>
