<svg width="28" height="20" viewBox="0 0 28 20" fill="none" xmlns="http://www.w3.org/2000/svg">
<path d="M13.9717 0.937683C7.67224 0.937683 2.29252 4.85593 0.112915 10.3868C2.29252 15.9177 7.67224 19.836 13.9717 19.836C20.2774 19.836 25.6508 15.9177 27.8304 10.3868C25.6508 4.85593 20.2774 0.937683 13.9717 0.937683ZM13.9717 16.6863C10.4944 16.6863 7.67224 13.8641 7.67224 10.3868C7.67224 6.90955 10.4944 4.0874 13.9717 4.0874C17.449 4.0874 20.2711 6.90955 20.2711 10.3868C20.2711 13.8641 17.449 16.6863 13.9717 16.6863ZM13.9717 6.60718C11.8866 6.60718 10.192 8.30173 10.192 10.3868C10.192 12.472 11.8866 14.1665 13.9717 14.1665C16.0568 14.1665 17.7513 12.472 17.7513 10.3868C17.7513 8.30173 16.0568 6.60718 13.9717 6.60718Z" fill="black"/>
</svg>
