<svg width="276" height="106" viewBox="0 0 276 106" fill="none" xmlns="http://www.w3.org/2000/svg">
<mask id="mask0_17_41" style="mask-type:luminance" maskUnits="userSpaceOnUse" x="39" y="0" width="64" height="56">
<path d="M39.2811 0.258305H102.414V55.7889H39.2811V0.258305Z" fill="white"/>
</mask>
<g mask="url(#mask0_17_41)">
<path d="M77.8509 0.477364C72.504 1.30245 59.5828 5.43619 51.4834 10.0459C42.1788 15.3414 39.2808 20.4955 40.669 26.9913C41.8752 32.613 44.4663 38.1278 48.8639 44.6059C53.6822 51.6918 60.9437 55.7892 70.0437 52.0524C79.1447 48.3042 92.15 39.5493 96.883 34.2268C102.414 27.9961 102.414 22.2818 100.363 16.5457C98.7419 12.0057 96.2725 8.70951 92.8583 5.27201C89.9682 2.36135 85.6673 0.259151 80.6602 0.259151C79.7462 0.259151 78.8082 0.329807 77.8509 0.477364Z" fill="white" fill-opacity="0.58"/>
</g>
<mask id="mask1_17_41" style="mask-type:luminance" maskUnits="userSpaceOnUse" x="0" y="0" width="276" height="106">
<path d="M0.583374 105.992H275.191V0.259079H0.583374L0.583374 105.992Z" fill="white"/>
</mask>
<g mask="url(#mask1_17_41)">
<path d="M62.8006 56.9729C63.8886 55.4973 65.3416 54.9954 67.7644 55.5857C69.8779 56.0907 72.8259 57.6099 73.5615 58.2677C74.6393 59.2476 74.9975 60.2348 74.8133 61.7686C74.6644 63.0249 74.3153 64.0641 73.6661 65.23C72.7134 66.9446 71.3821 67.991 69.6278 68.017C67.8803 68.0555 64.2103 67.6751 62.1207 66.8303C60.039 65.9803 59.782 63.9539 60.4903 61.7593C61.1338 59.7599 61.8512 58.2573 62.8006 56.9729Z" fill="white" fill-opacity="0.58"/>
<path d="M119.006 41.8998C109.717 41.8998 105.487 48.7042 105.487 55.0243C105.487 61.3361 109.717 68.1519 119.006 68.1519C128.298 68.1519 132.528 61.3361 132.528 55.0243C132.528 48.7042 128.298 41.8998 119.006 41.8998ZM119.006 66.9111C110.592 66.9111 107.603 60.5016 107.603 55.0243C107.603 49.5417 110.592 43.1385 119.006 43.1385C127.423 43.1385 130.409 49.5417 130.409 55.0243C130.409 60.5016 127.423 66.9111 119.006 66.9111Z" fill="white" fill-opacity="0.58"/>
<path d="M144.837 48.9686H141.822V43.8913C141.822 42.7306 141.175 42.7306 140.91 42.7306C140.633 42.7306 139.992 42.7306 139.992 43.8913V48.9686H136.972C136.52 48.9686 136.291 49.1379 136.291 49.4746C136.291 49.8103 136.52 49.9817 136.972 49.9817H139.992V67.0394C139.992 68.1512 140.633 68.1512 140.91 68.1512C141.175 68.1512 141.822 68.1512 141.822 67.0394V49.9817H144.837C145.288 49.9817 145.521 49.8103 145.521 49.4746C145.521 49.1379 145.288 48.9686 144.837 48.9686Z" fill="white" fill-opacity="0.58"/>
<path d="M160.151 59.5645C158.985 59.1779 155.589 58.0618 154.28 57.6306C151.499 56.712 150.362 55.3424 150.362 53.4272C150.362 50.5363 154.363 48.7428 158.065 48.7428C160.38 48.7428 162.867 49.1636 165.023 50.2932C166.046 50.819 165.218 51.8945 164.288 51.4435C162.653 50.66 161.454 49.7549 158.196 49.7549C155.356 49.7549 152.406 50.953 152.406 53.235C152.406 54.563 153.549 55.5565 155.302 56.1072C155.854 56.2828 159.784 57.5547 160.456 57.7709C164.134 58.9617 166.268 60.2773 166.268 62.9334C166.268 66.055 162.853 68.152 157.767 68.152C153.491 68.152 150.668 66.4176 149.463 65.313C148.501 64.436 149.688 63.5049 150.501 64.2406C151.369 65.0231 153.622 67.1388 157.912 67.1388C161.465 67.1388 164.216 65.3754 164.216 63.0477C164.216 60.8385 162.083 60.2015 160.151 59.5645Z" fill="white" fill-opacity="0.58"/>
<path d="M189.309 48.7426C189.027 48.7426 188.381 48.7426 188.381 49.8525V61.2332C188.381 62.7836 188.244 64.0618 187.484 65.0292C186.401 66.3895 184.297 67.1387 181.443 67.1387C178.627 67.1387 176.565 66.3822 175.469 64.996C174.706 64.0337 174.482 62.7628 174.482 61.2332V49.8525C174.482 48.7426 173.846 48.7426 173.566 48.7426C173.289 48.7426 172.65 48.7426 172.65 49.8525V61.8972C172.65 65.6995 176.101 68.1519 181.443 68.1519C186.766 68.1519 190.219 65.6995 190.219 61.8972V49.8525C190.219 48.7426 189.581 48.7426 189.309 48.7426Z" fill="white" fill-opacity="0.58"/>
<path d="M212.041 67.7842C212.996 68.4358 213.37 68.017 213.534 67.8258C213.708 67.6325 214.105 67.1795 213.17 66.4978L201.229 57.7315C201.229 57.7315 212.894 49.7685 212.886 49.7727C213.515 49.3466 213.31 49.0193 213.205 48.8904C213.093 48.7626 212.813 48.4976 212.186 48.9206L199.096 57.717V40.9597C199.096 39.8488 198.45 39.8488 198.173 39.8488C197.898 39.8488 197.26 39.8488 197.26 40.9597V67.0392C197.26 68.1521 197.898 68.1521 198.173 68.1521C198.45 68.1521 199.096 68.1521 199.096 67.0392V58.2719C199.096 58.2719 212.045 67.7842 212.041 67.7842Z" fill="white" fill-opacity="0.58"/>
<path d="M235.577 48.7426C235.303 48.7426 234.661 48.7821 234.661 49.8525L234.658 53.8241C233.677 51.2574 231.022 48.7426 226.671 48.7426C219.824 48.7426 216.705 53.7711 216.705 58.4379C216.705 63.1411 219.345 68.1519 226.766 68.1519C231.333 68.1519 233.717 65.5477 234.683 63.085V67.0389C234.683 68.1519 235.303 68.1519 235.577 68.1519C235.85 68.1519 236.498 68.1519 236.498 67.0389V49.8525C236.503 48.7946 235.85 48.7426 235.577 48.7426ZM226.766 67.1387C220.898 67.1387 218.666 62.4542 218.666 58.4379C218.666 54.1213 221.28 49.7548 226.766 49.7548C232.589 49.7548 234.661 54.4361 234.661 58.4379C234.661 62.4542 232.589 67.1387 226.766 67.1387Z" fill="white" fill-opacity="0.58"/>
</g>
</svg>
