<svg width="11" height="11" viewBox="0 0 11 11" fill="none" xmlns="http://www.w3.org/2000/svg">
<path d="M8.19648 10.1974C7.85091 10.4436 5.63361 8.88331 5.20895 8.87988C4.78429 8.87648 2.54203 10.4009 2.2005 10.1492C1.85897 9.89752 2.66189 7.31259 2.53394 6.90882C2.40598 6.50505 0.259155 4.84963 0.393634 4.44796C0.528142 4.04629 3.24167 4.00899 3.58724 3.76285C3.9328 3.51674 4.84827 0.96926 5.27296 0.97266C5.69759 0.976089 6.5717 3.53796 6.91324 3.78963C7.25477 4.04127 9.96738 4.12227 10.0954 4.52604C10.2233 4.9298 8.05002 6.55046 7.91551 6.95213C7.78103 7.3538 8.54204 9.9513 8.19648 10.1974Z" fill="#F8B84E"/>
</svg>
